PathFileType	4	(X/Y/Z)	/Users/itak/Documents/Research/Walk-IL/dataset/trc/00186_00008.trc
DataRate	CameraRate	NumFrames	NumMarkers	Units	OrigDataRate	OrigDataStartFrame	OrigNumFrames
100.000000	100.000000	4	53	mm	100.000000	585	780
Frame#	Time	RPSI			LPSI			L3			STRN			T10			C7			CLAV			RBAK			LBAK			LSHO			LUPA			LAEL			LAOL			LWTS			LWPS			LFRA			LIFD			LHPS			LHTS			RSHO			RUPA			RAEL			RAOL			RWTS			RWPS			RFRA			RIFD			RHTS			RHPS			RBHD			LFHD			RFHD			LBHD			LHIP			RHIP			RASI			LASI			LKNE			LTHI			LANK			LTIP			LTOE			LMT1			LMT5			LHEE			RKNE			RTHI			RANK			RTIP			RTOE			RMT1			RMT5			RHEE			
		X1	Y1	Z1	X2	Y2	Z2	X3	Y3	Z3	X4	Y4	Z4	X5	Y5	Z5	X6	Y6	Z6	X7	Y7	Z7	X8	Y8	Z8	X9	Y9	Z9	X10	Y10	Z10	X11	Y11	Z11	X12	Y12	Z12	X13	Y13	Z13	X14	Y14	Z14	X15	Y15	Z15	X16	Y16	Z16	X17	Y17	Z17	X18	Y18	Z18	X19	Y19	Z19	X20	Y20	Z20	X21	Y21	Z21	X22	Y22	Z22	X23	Y23	Z23	X24	Y24	Z24	X25	Y25	Z25	X26	Y26	Z26	X27	Y27	Z27	X28	Y28	Z28	X29	Y29	Z29	X30	Y30	Z30	X31	Y31	Z31	X32	Y32	Z32	X33	Y33	Z33	X34	Y34	Z34	X35	Y35	Z35	X36	Y36	Z36	X37	Y37	Z37	X38	Y38	Z38	X39	Y39	Z39	X40	Y40	Z40	X41	Y41	Z41	X42	Y42	Z42	X43	Y43	Z43	X44	Y44	Z44	X45	Y45	Z45	X46	Y46	Z46	X47	Y47	Z47	X48	Y48	Z48	X49	Y49	Z49	X50	Y50	Z50	X51	Y51	Z51	X52	Y52	Z52	X53	Y53	Z53	

586	5.850000000000001	-814.8786010742188	1048.794311523438	494.5980224609375	-703.0371704101562	1049.774536132812	444.8946838378906	-758.8677978515625	1087.238891601562	470.819580078125	-652.6530151367188	1301.39697265625	706.949462890625	-759.2554931640625	1245.269165039062	428.1067504882812	-713.5757446289062	1514.946899414062	480.8310852050781	-650.177978515625	1414.104248046875	673.72509765625	-845.4619750976562	1344.167114257812	459.7998962402344	-625.0250244140625	1485.967163085938	438.5021362304688	-525.8496704101562	1472.785278320312	482.0320739746094	-473.1375732421875	1337.960815429688	427.188232421875	-448.5933837890625	1120.868774414062	446.317138671875	-534.6959838867188	1098.078125	436.0008544921875	-405.5269470214844	956.8260498046875	638.6517944335938	-403.8948059082031	897.474609375	565.594970703125	-420.7776489257812	1019.047302246094	490.4823913574219	-392.0930786132812	803.1719360351562	740.7039794921875	-388.6322631835938	846.228515625	614.4873657226562	-371.5155029296875	889.922607421875	670.8011474609375	-860.9916381835938	1503.83740234375	603.1492919921875	-934.9570922851562	1443.1025390625	607.31201171875	-1020.724487304688	1165.28271484375	608.2572021484375	-927.8997192382812	1145.530517578125	578.0277709960938	-978.470458984375	948.3609619140625	759.6542358398438	-1041.250610351562	926.9247436523438	699.29833984375	-1036.109252929688	1095.135375976562	643.4329223632812	-951.1253051757812	766.0350952148438	787.82080078125	-983.811279296875	859.069580078125	798.7879028320312	-1033.324584960938	847.2198486328125	736.4118041992188	-733.1965942382812	1694.573120117188	608.7852172851562	-520.3294067382812	1686.944580078125	645.96826171875	-612.335205078125	1703.136840820312	734.6636352539062	-639.2827758789062	1685.811889648438	510.0601806640625	-555.7080688476562	987.1058349609375	496.977783203125	-874.1970825195312	1008.455993652344	686.0131225585938	-793.7215576171875	1045.280517578125	737.1127319335938	-555.6162719726562	1030.306274414062	634.6405029296875	-615.547119140625	492.8799133300781	620.7159423828125	-577.260986328125	631.85595703125	582.2763061523438	-715.4234008789062	41.73401260375977	572.7709350585938	-653.3292236328125	262.8938903808594	600.4657592773438	-628.3364868164062	45.27176666259766	773.0427856445312	-692.4080810546875	36.19847869873047	755.044921875	-628.3020629882812	44.07356643676758	647.6217041015625	-800.3866577148438	36.3651123046875	561.04638671875	-803.1651611328125	536.0070190429688	846.4681396484375	-846.0066528320312	802.534423828125	791.8944702148438	-940.4871826171875	95.10593414306641	642.9591674804688	-810.68603515625	411.9890441894531	832.413818359375	-874.443603515625	65.37432098388672	850.8397827148438	-834.0054321289062	67.08448028564453	791.7863159179688	-955.427734375	70.76553344726562	755.0077514648438	-881.9279174804688	98.52960968017578	582.45703125	
587	5.86	-814.1389770507812	1048.727905273438	504.188720703125	-703.4933471679688	1049.754638671875	451.8672180175781	-758.7086181640625	1087.175048828125	479.0166015625	-647.9644775390625	1301.380737304688	713.3089599609375	-759.6788940429688	1245.316772460938	436.3138122558594	-713.2825317382812	1514.946044921875	488.6066589355469	-646.4188232421875	1414.183471679688	680.2760009765625	-845.2122192382812	1344.024536132812	469.7551879882812	-625.3421630859375	1486.26611328125	444.657958984375	-525.3096313476562	1473.306030273438	486.5211791992188	-472.7615661621094	1338.206420898438	431.8319396972656	-447.6347961425781	1121.182250976562	453.320068359375	-533.7528076171875	1098.182739257812	443.2948913574219	-403.9760131835938	958.51171875	646.6647338867188	-402.244140625	898.6669921875	573.994140625	-419.568359375	1019.713989257812	498.1051635742188	-390.1263732910156	805.6720581054688	749.7335815429688	-386.8440246582031	847.7988891601562	623.2515869140625	-369.7707214355469	891.9326171875	679.2318115234375	-858.6004638671875	1503.494995117188	613.4271240234375	-932.4140625	1442.772583007812	618.854248046875	-1018.452697753906	1165.30615234375	621.1025390625	-926.1248779296875	1145.302978515625	589.2128295898438	-973.7698974609375	947.3826293945312	770.7081909179688	-1038.073120117188	926.60107421875	711.7410888671875	-1033.305908203125	1094.975341796875	656.3229370117188	-946.74560546875	764.7687377929688	797.2734985351562	-978.66650390625	857.822021484375	809.4411010742188	-1029.702514648438	846.6177978515625	748.1861572265625	-731.2221069335938	1694.541137695312	616.5551147460938	-518.0350341796875	1687.091674804688	651.7446899414062	-609.130859375	1703.1123046875	741.2979736328125	-638.2412109375	1685.942260742188	516.9390869140625	-555.02001953125	986.991455078125	501.0133361816406	-869.1751098632812	1008.9326171875	696.9803466796875	-787.3323364257812	1044.889404296875	746.1455078125	-551.6397094726562	1030.327270507812	638.24951171875	-614.3224487304688	492.46142578125	621.9688110351562	-576.144287109375	631.6478271484375	584.0875854492188	-715.554443359375	41.79747009277344	572.7687377929688	-653.1099243164062	262.8058471679688	600.932861328125	-628.600830078125	45.24317932128906	773.0594482421875	-692.50732421875	35.99761199951172	754.8301391601562	-628.3365478515625	44.10605621337891	647.500244140625	-800.6115112304688	36.31385040283203	561.1926879882812	-791.4212036132812	538.1497802734375	859.5466918945312	-837.4651489257812	803.7128295898438	803.5272216796875	-929.9882202148438	88.69307708740234	676.7484741210938	-797.916015625	413.7320556640625	849.4859619140625	-854.0291137695312	67.27098083496094	882.62255859375	-816.3327026367188	67.45345306396484	821.9462280273438	-938.9705810546875	67.85364532470703	790.34716796875	-874.0205688476562	90.58271026611328	613.7177124023438	
588	5.87	-813.220458984375	1048.56884765625	513.9090576171875	-703.859619140625	1049.702880859375	458.9974670410156	-758.4328002929688	1087.02685546875	487.3439331054688	-643.2402954101562	1301.291870117188	719.6395263671875	-760.0776977539062	1245.262939453125	444.6188354492188	-712.98828125	1514.776123046875	496.4465026855469	-642.6328735351562	1414.1875	686.8035888671875	-844.9319458007812	1343.78369140625	479.7626037597656	-625.6839599609375	1486.447631835938	450.8355712890625	-524.7928466796875	1473.724731445312	490.9955444335938	-472.4725341796875	1338.3603515625	436.4809875488281	-446.7178039550781	1121.419555664062	460.2956848144531	-532.8560180664062	1098.252319335938	450.5490112304688	-402.5534057617188	959.8029174804688	654.4157104492188	-400.7442932128906	899.5999145507812	582.0236206054688	-418.4472351074219	1020.242919921875	505.561279296875	-388.4634399414062	807.5321044921875	758.1974487304688	-385.2532958984375	848.9981689453125	631.53564453125	-368.2198486328125	893.4498901367188	687.2920532226562	-856.11865234375	1503.083374023438	623.727294921875	-929.7421264648438	1442.397216796875	630.3970947265625	-1016.072937011719	1165.228515625	633.9000244140625	-924.4418334960938	1145.03564453125	600.2326049804688	-969.0514526367188	946.2677612304688	781.5620727539062	-1034.814331054688	926.1802978515625	724.003173828125	-1030.413452148438	1094.744262695312	669.1445922851562	-942.3907470703125	763.3367309570312	806.360595703125	-973.513671875	856.3865356445312	819.8087768554688	-1026.038208007812	845.8634643554688	759.6710205078125	-729.236572265625	1694.417724609375	624.3366088867188	-515.7304077148438	1687.155029296875	657.5732421875	-605.95947265625	1702.989624023438	747.9656982421875	-637.1432495117188	1685.998413085938	523.8461303710938	-554.3204956054688	986.8812866210938	505.1181945800781	-864.049072265625	1009.367065429688	707.8868408203125	-780.884765625	1044.48193359375	755.1148681640625	-547.7252807617188	1030.294921875	641.8942260742188	-613.12548828125	492.0458984375	623.368408203125	-574.994384765625	631.4415893554688	586.0790405273438	-715.6951293945312	41.88540267944336	572.7894287109375	-652.8701782226562	262.72509765625	601.4788818359375	-628.8410034179688	45.22906112670898	773.0809326171875	-692.6447143554688	35.78104400634766	754.62646484375	-628.4060668945312	44.15958023071289	647.4058837890625	-800.7608032226562	36.27165985107422	561.3381958007812	-779.7014770507812	540.158447265625	872.193603515625	-828.8077392578125	804.7672729492188	814.9224243164062	-918.5282592773438	83.01464080810547	710.3095092773438	-784.9381103515625	415.4684753417969	866.032958984375	-832.654052734375	69.33541107177734	913.2965087890625	-797.8338623046875	68.09424591064453	851.0712280273438	-921.4354858398438	65.30478668212891	825.091552734375	-865.3155517578125	83.19097137451172	644.9577026367188	
589	5.88	-812.0612182617188	1048.301025390625	523.78662109375	-704.10205078125	1049.60498046875	466.2972717285156	-757.9991455078125	1086.790161132812	495.8142395019531	-638.4924926757812	1301.127685546875	725.95947265625	-760.3976440429688	1245.097412109375	453.048583984375	-712.6868286132812	1514.43896484375	504.34326171875	-638.8199462890625	1414.106811523438	693.3191528320312	-844.6051025390625	1343.433227539062	489.822998046875	-626.04248046875	1486.497192382812	457.0474243164062	-524.2958374023438	1474.018188476562	495.4907836914062	-472.2734985351562	1338.41650390625	441.1438293457031	-445.8389892578125	1121.56787109375	467.2176513671875	-532.0113525390625	1098.268920898438	457.7449340820312	-401.2457885742188	960.7076416015625	661.9065551757812	-399.3809509277344	900.2736206054688	589.6902465820312	-417.408203125	1020.625793457031	512.8411254882812	-387.0852661132812	808.7639770507812	766.118896484375	-383.8395080566406	849.8380737304688	639.358642578125	-366.847412109375	894.484130859375	694.9953002929688	-853.543212890625	1502.59423828125	634.049560546875	-926.9277954101562	1441.966918945312	641.921142578125	-1013.570190429688	1165.038330078125	646.6323852539062	-922.8118286132812	1144.70947265625	611.1019897460938	-964.332763671875	945.01708984375	792.2236328125	-1031.462036132812	925.6461791992188	736.0758056640625	-1027.425903320312	1094.436279296875	681.88525390625	-938.0676879882812	761.7550048828125	815.1384887695312	-968.3741455078125	854.7880249023438	829.924560546875	-1022.326782226562	844.9529418945312	770.8721313476562	-727.2413940429688	1694.197631835938	632.1309204101562	-513.4179077148438	1687.135498046875	663.458740234375	-602.8311157226562	1702.768432617188	754.6700439453125	-635.9892578125	1685.97705078125	530.78662109375	-553.5866088867188	986.7578735351562	509.28955078125	-858.8307495117188	1009.74267578125	718.7470703125	-774.3505859375	1044.078125	763.9671630859375	-543.8682250976562	1030.202270507812	645.6109008789062	-611.9296264648438	491.6304321289062	624.9252319335938	-573.7957763671875	631.2305908203125	588.2526245117188	-715.8365478515625	41.9911994934082	572.826171875	-652.5930786132812	262.6426086425781	602.1300659179688	-629.0269775390625	45.22897338867188	773.1017456054688	-692.7852783203125	35.57845306396484	754.4506225585938	-628.49853515625	44.22837829589844	647.3390502929688	-800.8513793945312	36.23742294311523	561.4796142578125	-768.0607299804688	542.019287109375	884.4481811523438	-820.0657958984375	805.682861328125	826.0922241210938	-906.0779418945312	78.00172424316406	743.57421875	-771.8046264648438	417.1601257324219	882.0785522460938	-810.369384765625	71.58280181884766	942.7911987304688	-778.5503540039062	69.00635528564453	879.1074829101562	-902.834228515625	63.15447998046875	859.1487426757812	-855.8292236328125	76.38005828857422	676.0690307617188	
